<svg width="75" height="73" viewBox="0 0 75 73" fill="none" xmlns="http://www.w3.org/2000/svg">
<g filter="url(#filter0_i_2_6)">
<ellipse cx="37.5" cy="36.75" rx="37.5" ry="36.25" fill="#202024"/>
</g>
<path d="M74.375 36.75C74.375 56.4053 57.8856 72.375 37.5 72.375C17.1144 72.375 0.625 56.4053 0.625 36.75C0.625 17.0947 17.1144 1.125 37.5 1.125C57.8856 1.125 74.375 17.0947 74.375 36.75Z" stroke="#61D4FB" stroke-width="1.25"/>
<path d="M30.95 31.23C30.31 30.0567 29.43 29.1633 28.31 28.55C27.19 27.9367 25.8833 27.63 24.39 27.63C22.7367 27.63 21.27 28.0033 19.99 28.75C18.71 29.4967 17.71 30.5633 16.99 31.95C16.27 33.3367 15.91 34.9367 15.91 36.75C15.91 38.6167 16.27 40.2433 16.99 41.63C17.7367 43.0167 18.7633 44.0833 20.07 44.83C21.3767 45.5767 22.8967 45.95 24.63 45.95C26.7633 45.95 28.51 45.39 29.87 44.27C31.23 43.1233 32.1233 41.5367 32.55 39.51H22.95V35.23H38.07V40.11C37.6967 42.0567 36.8967 43.8567 35.67 45.51C34.4433 47.1633 32.8567 48.4967 30.91 49.51C28.99 50.4967 26.83 50.99 24.43 50.99C21.7367 50.99 19.2967 50.39 17.11 49.19C14.95 47.9633 13.2433 46.27 11.99 44.11C10.7633 41.95 10.15 39.4967 10.15 36.75C10.15 34.0033 10.7633 31.55 11.99 29.39C13.2433 27.2033 14.95 25.51 17.11 24.31C19.2967 23.0833 21.7233 22.47 24.39 22.47C27.5367 22.47 30.27 23.2433 32.59 24.79C34.91 26.31 36.51 28.4567 37.39 31.23H30.95ZM58.9331 50.75L52.8931 41.35L47.4131 50.75H41.0931L49.8931 36.67L40.9731 22.83H47.4131L53.4531 32.19L58.8931 22.83H65.2131L56.4531 36.87L65.3731 50.75H58.9331Z" fill="#61DAFB"/>
<defs>
<filter id="filter0_i_2_6" x="0" y="0.5" width="75" height="77.5" filterUnits="userSpaceOnUse" color-interpolation-filters="sRGB">
<feFlood flood-opacity="0" result="BackgroundImageFix"/>
<feBlend mode="normal" in="SourceGraphic" in2="BackgroundImageFix" result="shape"/>
<feColorMatrix in="SourceAlpha" type="matrix" values="0 0 0 0 0 0 0 0 0 0 0 0 0 0 0 0 0 0 127 0" result="hardAlpha"/>
<feOffset dy="5"/>
<feGaussianBlur stdDeviation="2.5"/>
<feComposite in2="hardAlpha" operator="arithmetic" k2="-1" k3="1"/>
<feColorMatrix type="matrix" values="0 0 0 0 0 0 0 0 0 0 0 0 0 0 0 0 0 0 0.25 0"/>
<feBlend mode="normal" in2="shape" result="effect1_innerShadow_2_6"/>
</filter>
</defs>
</svg>
